<?xml version="1.0" standalone="no"?>
<!DOCTYPE svg PUBLIC "-//W3C//DTD SVG 20010904//EN"
 "http://www.w3.org/TR/2001/REC-SVG-20010904/DTD/svg10.dtd">
<svg version="1.0" xmlns="http://www.w3.org/2000/svg"
 width="709.000000pt" height="739.000000pt" viewBox="0 0 709.000000 739.000000"
 preserveAspectRatio="xMidYMid meet">
<metadata>
Created by potrace 1.16, written by Peter Selinger 2001-2019
</metadata>
<g transform="translate(0.000000,739.000000) scale(0.100000,-0.100000)"
fill="#000000" stroke="none">
<path d="M3260 7384 c-19 -2 -78 -9 -130 -14 -730 -82 -1439 -407 -1985 -913
-625 -579 -999 -1297 -1122 -2158 -25 -178 -25 -730 0 -908 103 -718 391
-1360 840 -1871 131 -149 403 -401 564 -523 462 -351 1039 -584 1664 -674 178
-25 730 -25 908 0 622 89 1175 312 1656 667 144 107 441 382 572 530 397 451
679 1031 802 1646 48 241 55 333 55 679 0 346 -7 438 -55 679 -131 656 -426
1239 -872 1721 -577 624 -1298 999 -2152 1121 -104 15 -655 28 -745 18z m2690
-3932 l0 -1857 -95 -95 -95 -95 0 1858 0 1857 -2210 0 -2210 0 0 -1862 0
-1863 -95 95 -95 95 0 1862 0 1863 2400 0 2400 0 0 -1858z m-2820 993 l0 -65
-632 2 -633 3 -3 49 c-2 27 -1 55 2 62 4 12 110 14 636 14 l630 0 0 -65z
m2095 -600 l0 -60 -1680 0 -1680 0 -3 49 c-2 27 -1 55 2 62 5 12 264 14 1683
12 l1678 -3 0 -60z m-2095 -600 l0 -65 -632 2 -633 3 -3 49 c-2 27 -1 55 2 62
4 12 110 14 636 14 l630 0 0 -65z m260 -445 l0 -40 -765 0 -765 0 0 40 0 40
765 0 765 0 0 -40z m1830 0 l0 -40 -765 0 -765 0 0 40 0 40 765 0 765 0 0 -40z
m-940 -300 l0 -40 -960 0 -960 0 0 40 0 40 960 0 960 0 0 -40z m0 -300 l0 -40
-960 0 -960 0 0 40 0 40 960 0 960 0 0 -40z m0 -300 l0 -40 -960 0 -960 0 0
40 0 40 960 0 960 0 0 -40z m-890 -460 l0 -40 -765 0 -765 0 0 40 0 40 765 0
765 0 0 -40z m1830 0 l0 -40 -765 0 -765 0 0 40 0 40 765 0 765 0 0 -40z
m-940 -300 l0 -40 -960 0 -960 0 0 40 0 40 960 0 960 0 0 -40z m0 -300 l0 -40
-960 0 -960 0 0 40 0 40 960 0 960 0 0 -40z"/>
</g>
</svg>
